<?xml version="1.0" encoding="UTF-8" standalone="no"?>
<!-- Created with Inkscape (http://www.inkscape.org/) -->

<svg
   xmlns:dc="http://purl.org/dc/elements/1.1/"
   xmlns:cc="http://creativecommons.org/ns#"
   xmlns:rdf="http://www.w3.org/1999/02/22-rdf-syntax-ns#"
   xmlns:svg="http://www.w3.org/2000/svg"
   xmlns="http://www.w3.org/2000/svg"
   xmlns:xlink="http://www.w3.org/1999/xlink"
   xmlns:sodipodi="http://sodipodi.sourceforge.net/DTD/sodipodi-0.dtd"
   xmlns:inkscape="http://www.inkscape.org/namespaces/inkscape"
   width="32"
   height="31.999998"
   id="svg4378"
   version="1.1"
   inkscape:version="0.91 r13725"
   sodipodi:docname="HeeksCAM.svg">
  <defs
     id="defs4380">
    <linearGradient
       id="linearGradient2888-5">
      <stop
         id="stop4189"
         offset="0"
         style="stop-color:#333528;stop-opacity:1" />
      <stop
         id="stop4191"
         offset="1"
         style="stop-color:#e6df7e;stop-opacity:1" />
    </linearGradient>
    <inkscape:perspective
       sodipodi:type="inkscape:persp3d"
       inkscape:vp_x="0 : 526.18109 : 1"
       inkscape:vp_y="0 : 1000 : 0"
       inkscape:vp_z="744.09448 : 526.18109 : 1"
       inkscape:persp3d-origin="372.04724 : 350.78739 : 1"
       id="perspective4386" />
    <inkscape:perspective
       id="perspective4363"
       inkscape:persp3d-origin="0.5 : 0.33333333 : 1"
       inkscape:vp_z="1 : 0.5 : 1"
       inkscape:vp_y="0 : 1000 : 0"
       inkscape:vp_x="0 : 0.5 : 1"
       sodipodi:type="inkscape:persp3d" />
    <linearGradient
       inkscape:collect="always"
       xlink:href="#linearGradient2888"
       id="linearGradient6707"
       gradientUnits="userSpaceOnUse"
       x1="88"
       y1="441.36218"
       x2="112"
       y2="441.36218"
       gradientTransform="matrix(1.0833334,0,0,1.1538462,-8.3333334,-67.901877)" />
    <linearGradient
       id="linearGradient2888">
      <stop
         style="stop-color:#8080ff;stop-opacity:1;"
         offset="0"
         id="stop2889" />
      <stop
         style="stop-color:#0000c0;stop-opacity:1;"
         offset="1"
         id="stop2894" />
    </linearGradient>
    <linearGradient
       inkscape:collect="always"
       xlink:href="#linearGradient2888-5"
       id="linearGradient4161"
       x1="102.82217"
       y1="264.26239"
       x2="132.28693"
       y2="264.26239"
       gradientUnits="userSpaceOnUse" />
  </defs>
  <sodipodi:namedview
     id="base"
     pagecolor="#ffffff"
     bordercolor="#666666"
     borderopacity="1.0"
     inkscape:pageopacity="0.0"
     inkscape:pageshadow="2"
     inkscape:zoom="7.3750004"
     inkscape:cx="16.271186"
     inkscape:cy="15.999999"
     inkscape:document-units="px"
     inkscape:current-layer="layer1"
     showgrid="false"
     inkscape:window-width="1536"
     inkscape:window-height="803"
     inkscape:window-x="-8"
     inkscape:window-y="-8"
     inkscape:window-maximized="1" />
  <metadata
     id="metadata4383">
    <rdf:RDF>
      <cc:Work
         rdf:about="">
        <dc:format>image/svg+xml</dc:format>
        <dc:type
           rdf:resource="http://purl.org/dc/dcmitype/StillImage" />
        <dc:title />
      </cc:Work>
    </rdf:RDF>
  </metadata>
  <g
     inkscape:label="Layer 1"
     inkscape:groupmode="layer"
     id="layer1"
     transform="translate(-101.14286,-247.79075)">
    <g
       id="g6712"
       inkscape:export-filename="C:\Users\Dan\Heeks Software\HeeksCAD\bitmaps\cyl.png"
       inkscape:export-xdpi="270"
       inkscape:export-ydpi="270"
       transform="translate(17.142857,-173.57143)"
       style="fill:none;stroke:none">
      <path
         d="m 115,427.36218 a 15,5 0 0 1 -15,5 15,5 0 0 1 -15,-5 15,5 0 0 1 15,-5 15,5 0 0 1 15,5 z"
         sodipodi:ry="5"
         sodipodi:rx="15"
         sodipodi:cy="427.36218"
         sodipodi:cx="100"
         id="path24346"
         style="fill:none;fill-opacity:1;stroke:none;stroke-width:2;stroke-linejoin:round;stroke-miterlimit:4;stroke-opacity:1;stroke-dasharray:none"
         sodipodi:type="arc" />
      <path
         transform="matrix(0.8000001,0,0,0.6000031,19.999985,170.94356)"
         d="m 115,427.36218 a 15,5 0 0 1 -15,5 15,5 0 0 1 -15,-5 15,5 0 0 1 15,-5 15,5 0 0 1 15,5 z"
         sodipodi:ry="5"
         sodipodi:rx="15"
         sodipodi:cy="427.36218"
         sodipodi:cx="100"
         id="path24351"
         style="fill:none;fill-opacity:1;stroke:none"
         sodipodi:type="arc" />
      <path
         sodipodi:nodetypes="csccscc"
         d="m 115,427.36218 c 0,2.76 -6.72,5 -15,5 -8.28,0 -15,-2.24 -15,-5 l 0,20 c 0,2.76 6.72,5 15,5 8.28,0 15,-2.24 15,-5 l 0,-20 z"
         style="fill:none;fill-opacity:1;stroke:none;stroke-width:2;stroke-linejoin:round;stroke-miterlimit:4;stroke-opacity:1"
         id="path24348" />
      <path
         sodipodi:nodetypes="csccscc"
         d="m 113,432.13141 c -1,1.23077 -6,2.38463 -13,2.3077 -7,-0.0769 -12,-1.07693 -13,-2.3077 l 0,15 c 0,1.15385 4.03,3.46154 13,3.46154 8.97,0 13,-2.30769 13,-3.46154 l 0,-15 z"
         style="fill:none;fill-opacity:1;stroke:none"
         id="path24358" />
    </g>
    <path
       style="fill:url(#linearGradient4161);fill-rule:evenodd;stroke:#000000;stroke-width:0.8;stroke-linecap:butt;stroke-linejoin:miter;stroke-opacity:1;fill-opacity:1;stroke-miterlimit:4;stroke-dasharray:none"
       d="m 103.04116,278.43482 c 0,0 5.28814,-2.57628 8.81356,-6.37289 3.52543,-3.7966 12.88136,-21.9661 12.88136,-21.9661 l 7.05085,0.1356 0,18.0339 c 0,0 -0.81356,3.7966 -4.20339,6.23728 -3.38983,2.44068 -24.54237,3.93221 -24.54237,3.93221 z"
       id="path4145"
       inkscape:connector-curvature="0" />
  </g>
</svg>
